<?xml version="1.0" standalone="no"?>
<!DOCTYPE svg PUBLIC "-//W3C//DTD SVG 20010904//EN"
 "http://www.w3.org/TR/2001/REC-SVG-20010904/DTD/svg10.dtd">
<svg version="1.0" xmlns="http://www.w3.org/2000/svg"
 width="119.000000pt" height="119.000000pt" viewBox="0 0 119.000000 119.000000"
 preserveAspectRatio="xMidYMid meet">
<metadata>
Created by potrace 1.11, written by Peter Selinger 2001-2013
</metadata>
<g transform="translate(0.000000,119.000000) scale(0.100000,-0.100000)"
fill="#000000" stroke="none">
<path d="M573 1130 c-46 -11 -77 -33 -114 -84 -24 -35 -43 -49 -81 -62 -28 -9
-64 -31 -84 -52 -50 -51 -65 -113 -63 -258 1 -137 0 -140 -82 -222 -27 -27
-49 -58 -49 -70 0 -13 19 -38 49 -63 45 -39 50 -47 55 -98 14 -118 4 -108 114
-116 105 -6 154 -15 135 -22 -20 -7 -15 -51 6 -63 27 -14 68 -13 77 2 5 7 7
25 6 40 -2 25 1 28 29 28 29 0 31 -2 26 -29 -3 -15 -1 -33 6 -40 14 -14 52
-14 78 -1 20 11 26 45 9 55 -25 16 -2 22 97 29 59 3 112 11 117 16 5 5 12 77
14 160 l4 150 40 0 c67 0 78 12 77 83 -1 85 -20 168 -45 195 -18 19 -23 20
-47 9 -34 -15 -34 -41 -2 -73 31 -31 53 -108 36 -128 -14 -16 -50 -10 -71 13
-12 12 -15 43 -15 131 0 100 -4 127 -29 204 -62 189 -176 292 -293 266z m85
-19 c73 -21 140 -103 188 -233 23 -61 28 -94 32 -199 l4 -127 -28 -5 c-16 -3
-87 -15 -159 -27 l-130 -21 -153 24 c-84 13 -156 27 -160 31 -4 4 -7 65 -7
134 0 116 2 132 27 184 24 53 31 58 100 91 57 27 80 45 106 82 47 66 104 87
180 66z m292 -421 c0 -5 -5 -10 -11 -10 -5 0 -7 5 -4 10 3 6 8 10 11 10 2 0 4
-4 4 -10z m57 -30 c-5 -33 -20 -39 -42 -18 l-20 20 23 -7 c12 -3 22 -3 21 2
-3 15 1 23 11 23 5 0 8 -9 7 -20z m-494 -264 c3 -8 3 -17 0 -20 -9 -9 -34 15
-27 25 8 13 21 11 27 -5z m131 5 c3 -5 -1 -14 -8 -20 -16 -13 -32 2 -21 19 8
12 22 13 29 1z m-444 -27 c0 -8 -5 -12 -10 -9 -6 4 -8 11 -5 16 9 14 15 11 15
-7z m120 -100 c0 -9 -11 -14 -30 -14 -36 0 -42 27 -7 32 28 5 37 1 37 -18z
m456 -23 c-20 -31 -342 -42 -391 -13 -17 10 -12 11 25 4 63 -10 289 -6 325 6
39 13 47 14 41 3z"/>
<path d="M350 820 c-41 -41 -12 -120 44 -120 33 0 76 37 76 64 0 63 -77 99
-120 56z m55 -35 c0 -23 -4 -30 -20 -30 -21 0 -31 25 -21 51 11 28 41 12 41
-21z m10 -45 c3 -5 -1 -10 -10 -10 -9 0 -13 5 -10 10 3 6 8 10 10 10 2 0 7 -4
10 -10z"/>
<path d="M682 824 c-16 -11 -22 -25 -22 -54 0 -62 62 -92 108 -52 71 59 -10
160 -86 106z m78 -19 c16 -20 3 -55 -21 -55 -11 0 -17 -4 -14 -10 3 -5 2 -10
-3 -10 -6 0 -9 16 -7 35 5 55 21 69 45 40z"/>
<path d="M325 692 c-33 -7 -40 -20 -12 -27 33 -9 69 -3 74 11 4 13 -31 22 -62
16z"/>
<path d="M730 680 c0 -23 90 -26 98 -2 2 8 -11 12 -47 12 -28 0 -51 -4 -51
-10z"/>
<path d="M615 635 c-3 -8 -7 -22 -10 -31 -8 -24 -91 -11 -122 18 -29 27 -42
17 -14 -11 44 -44 147 -50 190 -10 21 20 30 45 12 34 -5 -3 -12 -1 -16 5 -9
15 -35 12 -40 -5z"/>
</g>
</svg>
